# xmcd
#
# Track frame offsets:
#	150
#	15135
#	31037
#	47256
#	63224
#	77463
#	97971
#	116467
#	134725
#	151339
#	173226
#	190963
#	202325
#	220655
#	235791
#	251375
#	267868
#	286949
#
# Disc length: 4042 seconds
# Revision: 0
# Processed by: cddbd v1.5.2PL0 Copyright (c) Steve Scherf et al.
# Submitted via: dBpowerAMP V12.0
#
DISCID=e30fc812
DTITLE=Various Artist - Country Radio January 2011
DYEAR=2011
DGENRE=Country
TTITLE0=Aaron Lines - These Are Those Days
TTITLE1=Donny Parenteau - My Girl
TTITLE2=Darius Rucker - This
TTITLE3=Adam Craig Band - Nothin Wrong
TTITLE4=Gord Bamford - My Daughter's Father
TTITLE5=Various Artist - Standing Strong and True For Tomorrow
TTITLE6=George Canyon - Better Be Home Soon
TTITLE7=Burns and Poe - How Long Is Long Enough
TTITLE8=Jason Aldean and Kelly Clarkson - Don't You Wanna Stay
TTITLE9=Taylor Swift - Back To December
TTITLE10=Melanie Morgan - Not Tonight
TTITLE11=Great Big Sea - Good People
TTITLE12=Easton Corbin - I Can't Love You Back
TTITLE13=Leann Rimes - Crazy Women (Explicit Lyrics)
TTITLE14=Lee Brice - Beautiful Every Time
TTITLE15=Ridley Bent - Love Car
TTITLE16=Larry Berrio - Rock Town
TTITLE17=Jo Hikk Band - With A Smile Like That
EXTD=
EXTT0=
EXTT1=
EXTT2=
EXTT3=
EXTT4=
EXTT5=
EXTT6=
EXTT7=
EXTT8=
EXTT9=
EXTT10=
EXTT11=
EXTT12=
EXTT13=
EXTT14=
EXTT15=
EXTT16=
EXTT17=
PLAYORDER=
